<?xml version="1.0" encoding="UTF-8"?>
<svg version="1.1" viewBox="150 150 500 600" xmlns="http://www.w3.org/2000/svg" xmlns:cc="http://creativecommons.org/ns#" xmlns:dc="http://purl.org/dc/elements/1.1/" xmlns:rdf="http://www.w3.org/1999/02/22-rdf-syntax-ns#">
<metadata>
<rdf:RDF>
<cc:Work rdf:about="">
<dc:format>image/svg+xml</dc:format>
<dc:type rdf:resource="http://purl.org/dc/dcmitype/StillImage"/>
<dc:title/>
</cc:Work>
</rdf:RDF>
</metadata>
<g>
<g transform="translate(11.508 -1089.3)" fill="#4d4d4d">
<path d="m315.81 1609.2h160.99v83.784c-32.191-6.2368-53.717 3.65-80.497 5.0645-28.693-3.0462-55.498-12.226-80.497-5.25z"/>
<path d="m324.16 1601.4c23.562-2.6551 47.311-8.8573 70.219 10.24v79.968c-23.136-7.7193-46.396-13.465-70.219-10.24z" stroke="#fff" stroke-width="4.7982"/>
<path d="m333.98 1585c20.263-0.4305 40.687-4.7763 60.387 18.856v88.717c-19.897-11.034-39.9-19.891-60.387-18.856z" stroke="#fff" stroke-width="4.6497"/>
<path d="m469.21 1601.4c-23.562-2.6551-47.311-8.8573-70.219 10.24v79.968c23.136-7.7193 46.396-13.465 70.219-10.24z" stroke="#fff" stroke-width="4.7982"/>
<path d="m459.38 1585c-20.263-0.4305-40.687-4.7763-60.387 18.856v88.717c19.897-11.034 39.9-19.891 60.387-18.856z" stroke="#fff" stroke-width="4.6497"/>
</g>
<path d="m270.77 310.04c-61.88-7.0243-48.791-17.797-61.619-27.274 67.867-6.356 137.56-58.871 203.55-17.678 25.815 12.149 29.422 31.924 39.901 48.74 9.4856 62.431 9.8114 100.83-26.769 42.426z" fill="#4d4d4d"/>
<path d="m320.62 302.31c-57.479 0.48828-100.85 34.921-155.44 42.375 15.544 2.0021 28.44 6.8466 39.719 13.375 2.5007 0.30484 4.7959 0.50866 6.5938 0.59375 3.7881 1.0101 62.625-12.25 62.625-12.25-18.87 7.6296-37.812 17.758-56.531 20.125 5.796 4.3815 11.198 9.1433 16.375 14.094 6.0277 0.98355 11.891 1.7876 15.719 1.9688 3.7881 1.0101 62.656-12.25 62.656-12.25-22.779 9.2101-45.685 22.063-68.156 20.5 4.9444 5.0594 9.7993 10.137 14.75 15.031 9.3386 0.55057 22.212 0.70427 28.844 0.03125 3.8958 0.4387 60.125-21.375 60.125-21.375-26.319 15.515-51.936 36.637-81.062 28.844 16.59 15.076 35.2 26.959 62.156 28.188 22.847-14.325 49.857-22.625 78.812-22.625 26.17 0 50.769 6.7785 72.125 18.656 15.324-4.269 29.064-21.369 48.812-35.062 12.669-14.971 26.038-22.388 44.281-22.156-16.362-4.072-13.451-36.157-41.438-44.281-33.251-1.8221-44.959 17.893-60 34.281l-87.844-55c-23.226-9.6334-43.965-13.225-63.125-13.062z" fill="#666"/>
<path d="m312.06 425.12c-3.9306 0.06469-7.8028 0.53372-11.312 1.5l-44.469 33.812c-19.455 12.908-39.297 23.454-60.094 28.312 17.209 13.406 48.059 27.074 76 18 13.785-30.715 37.71-55.912 67.5-71.312 0.78847-5.6796-13.64-10.543-27.625-10.312z" fill="#666"/>
<rect transform="matrix(-.88638 -.46296 0 1 0 0)" x="-641.01" y="318.22" width="33.943" height="46.23" fill="#501616"/>
<rect transform="matrix(.88187 -.47149 0 1 0 0)" x="280.61" y="747.34" width="33.329" height="46.23" fill="#501616"/>
<rect transform="matrix(.70711 .70711 -.70711 .70711 0 0)" x="614.45" y="38.162" width="26.517" height="26.517" fill="#fff"/>
<path d="m407.82 427.53c-77.32 0-140 62.68-140 140s62.68 140 140 140c77.32 0 140-62.68 140-140s-62.68-140-140-140zm0 23.562c64.302 0 116.41 52.136 116.41 116.44 0 64.302-52.105 116.41-116.41 116.41-64.302 0-116.44-52.104-116.44-116.41 0-64.302 52.136-116.44 116.44-116.44z" fill="#666"/>
<path d="m407.81 454.79-24.89 24.89 24.89 24.89 24.913-24.89-24.913-24.89zm0 7.7683 16.963 17.122-4.0314 4.0767-12.932-13.045-12.909 13.045-4.0314-4.0767 16.941-17.122z" fill="#666"/>
<rect x="395.91" y="484.44" width="23.813" height="160.36" fill="#666"/>
<rect transform="matrix(.70711 .70711 -.70711 .70711 0 0)" x="610.46" y="101.07" width="26.517" height="26.517" fill="#fff"/>
<rect transform="matrix(.70711 .70711 -.70711 .70711 0 0)" x="677.81" y="33.715" width="26.517" height="26.517" fill="#fff"/>
<rect transform="rotate(90)" x="509.97" y="-449.22" width="23.813" height="82.806" fill="#666"/>
<path d="m480.33 521.86-24.89-24.89-24.89 24.89 24.89 24.913 24.89-24.913zm-7.7683 0-17.122 16.964-4.0767-4.0314 13.045-12.932-13.045-12.909 4.0767-4.0314 17.122 16.941z" fill="#666"/>
<path d="m407.81 678.1-24.89-24.89 24.89-24.89 24.913 24.89-24.913 24.89zm0-7.7684 16.963-17.122-4.0314-4.0767-12.932 13.045-12.909-13.045-4.0314 4.0767 16.941 17.122z" fill="#666"/>
<path d="m335.3 521.88 24.89 24.89 24.89-24.89-24.89-24.913-24.89 24.913zm7.7683 0 17.122-16.964 4.0767 4.0314-13.045 12.932 13.045 12.91-4.0767 4.0314-17.122-16.941z" fill="#666"/>
<rect x="349.71" y="518.51" width="76.767" height="6.7297" fill="#fff"/>
<rect x="419.72" y="518.51" width="45.781" height="6.7297" fill="#fff"/>
<rect transform="rotate(90)" x="533.78" y="-411.18" width="128.62" height="6.7297" fill="#fff"/>
<rect transform="matrix(0,-1,-1,0,0,0)" x="-548.04" y="-411.18" width="77.499" height="6.7297" fill="#fff"/>
<path transform="matrix(1.4363 0 0 1.4363 73.932 -585.57)" d="m239.41 771.03a6.9448 6.9448 0 1 1 -13.89 0 6.9448 6.9448 0 1 1 13.89 0z" fill="#fff"/>
<path transform="matrix(.98828 0 0 .98828 178.08 -240.13)" d="m239.41 771.03a6.9448 6.9448 0 1 1 -13.89 0 6.9448 6.9448 0 1 1 13.89 0z" fill="#666"/>
<rect x="247.46" y="615.03" width="320.71" height="76.429" fill="#782121"/>
<text x="272.24133" y="667.80396" fill="#000000" font-family="Sans" font-size="40px" letter-spacing="0px" word-spacing="0px" style="line-height:125%" xml:space="preserve"><tspan x="272.24133" y="667.80396" fill="#ffffff" font-family="DejaVu Serif">YES WE CAN</tspan></text>
</g>
</svg>
